<?xml version="1.0" encoding="UTF-8" standalone="no"?>
<svg
   width="33.9375"
   zoomAndPan="magnify"
   viewBox="0 0 25.453125 25.453125"
   height="33.9375"
   preserveAspectRatio="xMidYMid"
   version="1.0"
   id="svg4"
   sodipodi:docname="symbol-phone.svg"
   inkscape:version="1.3.2 (091e20e, 2023-11-25, custom)"
   xmlns:inkscape="http://www.inkscape.org/namespaces/inkscape"
   xmlns:sodipodi="http://sodipodi.sourceforge.net/DTD/sodipodi-0.dtd"
   xmlns="http://www.w3.org/2000/svg"
   xmlns:svg="http://www.w3.org/2000/svg">
  <sodipodi:namedview
     id="namedview4"
     pagecolor="#ffffff"
     bordercolor="#000000"
     borderopacity="0.25"
     inkscape:showpageshadow="2"
     inkscape:pageopacity="0.0"
     inkscape:pagecheckerboard="0"
     inkscape:deskcolor="#d1d1d1"
     inkscape:zoom="1.11"
     inkscape:cx="515.76577"
     inkscape:cy="-7.6576577"
     inkscape:window-width="1920"
     inkscape:window-height="991"
     inkscape:window-x="-9"
     inkscape:window-y="1071"
     inkscape:window-maximized="1"
     inkscape:current-layer="svg4" />
  <defs
     id="defs1">
    <clipPath
       id="e0871c21fd">
      <path
         d="m 138.33203,267.90625 h 25.45313 v 25.45312 h -25.45313 z m 0,0"
         clip-rule="nonzero"
         id="path1" />
    </clipPath>
  </defs>
  <path
     fill="#3dcab1"
     d="m 13.558589,5.02344 c -3.92968,0 -7.125,3.19531 -7.125,7.1289 0,1.28516 0.34766,2.53125 0.9961,3.625 l -0.96094,3.47657 3.64844,-0.86719 c 1.05078,0.58594 2.23047,0.89062 3.4414,0.89062 3.9336,0 7.12891,-3.19531 7.12891,-7.125 0,-3.93359 -3.19531,-7.1289 -7.12891,-7.1289 z m 0,13.08203 c -1.08203,0 -2.13281,-0.29297 -3.05078,-0.83203 l -0.20703,-0.1211 -2.17578,0.51172 0.57422,-2.07031 -0.14063,-0.21484 c -0.61718,-0.95313 -0.94531,-2.08204 -0.94531,-3.22657 0,-3.28125 2.67578,-5.95703 5.95703,-5.95703 3.28125,0 5.95703,2.67578 5.95703,5.95703 -0.0117,3.28907 -2.6875,5.95313 -5.96875,5.95313 z m 0,0"
     fill-opacity="1"
     fill-rule="nonzero"
     id="path2" />
  <path
     fill="#3dcab1"
     d="m 16.949219,14.71875 c -0.0547,0.28906 -0.68359,0.66016 -1.08203,0.76562 -0.9961,0.26172 -2.39453,-0.49609 -3.78125,-1.69921 -1.39453,-1.21094 -2.33594,-2.48829 -2.20703,-3.50782 0.043,-0.40234 0.33593,-1.08203 0.61718,-1.16797 0.26954,-0.0898 0.46485,-0.0117 0.7461,0.0859 0.14062,0.15235 0.3164,0.34375 0.50781,0.5625 0.26172,0.29297 0.43359,0.5625 0.55469,0.7461 0.0859,0.15234 0.0547,0.34765 -0.0781,0.46484 l -0.47656,0.42187 c -0.0859,0.0781 -0.11719,0.20704 -0.0625,0.30469 0.15234,0.31641 0.49609,0.96485 1.00781,1.41016 0.50782,0.4414 1.19922,0.6914 1.52735,0.80078 0.10547,0.0312 0.22656,-0.0117 0.28906,-0.10938 l 0.35937,-0.53125 c 0.0977,-0.14062 0.29297,-0.20703 0.45313,-0.14062 0.19531,0.0859 0.48828,0.21875 0.8125,0.43359 0.25,0.16407 0.45703,0.3125 0.62891,0.4336 0.1289,0.25781 0.23828,0.44531 0.18359,0.72656 z m 0,0"
     fill-opacity="1"
     fill-rule="nonzero"
     id="path3" />
  <g
     clip-path="url(#e0871c21fd)"
     id="g4"
     transform="translate(-138.33203,-267.90625)">
    <path
       fill="#3dcab1"
       d="m 151.1875,293.61328 c -7.08203,0 -12.85547,-5.75781 -12.85547,-12.85156 0,-7.08203 5.77344,-12.85547 12.85547,-12.85547 7.08203,0 12.85547,5.77344 12.85547,12.85547 0,7.09375 -5.76172,12.85156 -12.85547,12.85156 z m 0,-25.00391 c -6.70313,0 -12.14844,5.44922 -12.14844,12.15235 0,6.70312 5.44531,12.14844 12.14844,12.14844 6.70312,0 12.15234,-5.44532 12.15234,-12.14844 0,-6.70313 -5.44922,-12.15235 -12.15234,-12.15235 z m 0,0"
       fill-opacity="1"
       fill-rule="nonzero"
       id="path4" />
  </g>
</svg>
