<?xml version="1.0" encoding="UTF-8" standalone="no"?>
<svg
   width="33.638103"
   zoomAndPan="magnify"
   viewBox="0 0 25.228578 25.220822"
   height="33.627762"
   preserveAspectRatio="xMidYMid"
   version="1.0"
   id="svg4"
   sodipodi:docname="symbol-@.svg"
   inkscape:version="1.3.2 (091e20e, 2023-11-25, custom)"
   xmlns:inkscape="http://www.inkscape.org/namespaces/inkscape"
   xmlns:sodipodi="http://sodipodi.sourceforge.net/DTD/sodipodi-0.dtd"
   xmlns="http://www.w3.org/2000/svg"
   xmlns:svg="http://www.w3.org/2000/svg">
  <sodipodi:namedview
     id="namedview4"
     pagecolor="#ffffff"
     bordercolor="#000000"
     borderopacity="0.25"
     inkscape:showpageshadow="2"
     inkscape:pageopacity="0.0"
     inkscape:pagecheckerboard="0"
     inkscape:deskcolor="#d1d1d1"
     inkscape:zoom="4.44"
     inkscape:cx="132.54505"
     inkscape:cy="35.247748"
     inkscape:window-width="1920"
     inkscape:window-height="991"
     inkscape:window-x="-9"
     inkscape:window-y="1071"
     inkscape:window-maximized="1"
     inkscape:current-layer="svg4" />
  <defs
     id="defs1">
    <clipPath
       id="13be0199be">
      <path
         d="m 138,230.38672 h 26 v 25.44922 h -26 z m 0,0"
         clip-rule="nonzero"
         id="path1" />
    </clipPath>
  </defs>
  <g
     clip-path="url(#13be0199be)"
     id="g4"
     transform="translate(-138.0599,-230.61512)">
    <path
       fill="#3dcab1"
       d="m 162.44531,238.18359 c -2.14844,-4.83203 -6.95312,-7.79687 -12.25,-7.55468 -6.49609,0.29687 -11.82812,5.625 -12.12109,12.125 -0.16406,3.51953 1.08594,6.85937 3.51172,9.39453 2.42578,2.54297 5.69531,3.94531 9.21093,3.94531 1.76954,0 3.48047,-0.35547 5.09375,-1.05469 l 1.00782,-0.4375 -0.87891,-2.01172 -1.00781,0.4375 c -1.32813,0.57813 -2.7461,0.8711 -4.20703,0.8711 -2.91016,0 -5.61719,-1.15625 -7.625,-3.26172 -2.00782,-2.10547 -3.03907,-4.86719 -2.90625,-7.78125 0.25,-5.375 4.65234,-9.78516 10.03125,-10.02735 4.375,-0.19921 8.35547,2.25 10.13281,6.25 1.20312,2.70313 0.67578,5.875 -1.3125,7.89454 -0.63672,0.64843 -1.35547,1.12109 -2.14063,1.41796 -0.45312,0.16797 -0.80468,-0.043 -0.9375,-0.14062 -0.13281,-0.10156 -0.4375,-0.38672 -0.39843,-0.87891 l 0.26953,-3.40625 0.55078,-6.97656 -2.19141,-0.17187 -0.12109,1.52343 c -0.91797,-1.02734 -2.12891,-1.70312 -3.49609,-1.80859 -3.19922,-0.25 -6.05469,2.67578 -6.35547,6.52344 -0.14063,1.8164 0.29687,3.58593 1.23828,4.97265 0.99609,1.46094 2.42187,2.33985 4.02344,2.46094 0.125,0.0117 0.2539,0.0156 0.3789,0.0156 1.42969,0 2.76953,-0.625 3.8125,-1.67188 0.21875,0.45313 0.54688,0.86328 0.96485,1.17578 0.87109,0.66016 2,0.82813 3.02734,0.44531 1.08594,-0.40234 2.07422,-1.05468 2.9375,-1.92968 2.65625,-2.71094 3.34375,-6.76563 1.75781,-10.33985 z m -12.71094,10.10547 c -0.91796,-0.0742 -1.76562,-0.60937 -2.375,-1.51172 -0.66406,-0.97265 -0.96875,-2.24218 -0.86718,-3.5664 0.19922,-2.54297 1.87109,-4.50782 3.77734,-4.50782 0.0703,0 0.14063,0.004 0.21875,0.008 1.99219,0.16015 3.44531,2.43359 3.23828,5.07031 v 0.008 c -0.20703,2.63672 -2,4.65625 -3.99219,4.5 z m 0,0"
       fill-opacity="1"
       fill-rule="nonzero"
       id="path4" />
  </g>
</svg>
